<?xml version="1.0" encoding="UTF-8" standalone="no"?>
<!-- Generator: Adobe Illustrator 13.0.2, SVG Export Plug-In . SVG Version: 6.00 Build 14948)  -->
<svg id="svg2" xmlns:rdf="http://www.w3.org/1999/02/22-rdf-syntax-ns#" xmlns="http://www.w3.org/2000/svg" enable-background="new 0 0 545.333 82.667" xml:space="preserve" height="82.667px" width="545.33px" version="1.1" y="0px" x="0px" xmlns:cc="http://creativecommons.org/ns#" xmlns:dc="http://purl.org/dc/elements/1.1/" viewBox="0 0 545.333 82.667"><metadata id="metadata317"><rdf:RDF><cc:Work rdf:about=""><dc:format>image/svg+xml</dc:format><dc:type rdf:resource="http://purl.org/dc/dcmitype/StillImage"/><dc:title/></cc:Work></rdf:RDF></metadata><g id="Layer_1"><g id="g239" fill="#231F20"><rect id="rect241" height="20.218" width="2.802" y="5.201" x="4.403"/><path id="path243" d="m29.76 25.419h-2.195c-4.389-5.259-11.926-14.325-13.139-16.087h-0.061v16.087h-2.306v-20.218h2.079c4.444 5.257 11.895 14.092 13.255 16.114h0.055v-16.114h2.312v20.218"/><path id="path245" d="m41.076 5.201c8.144 0 10.975 4.656 10.975 9.507 0 6.698-4.275 10.711-11.435 10.711h-6.008v-20.218h6.468m-3.667 18.194h3.12c5.688 0 8.432-2.827 8.432-8.745 0-4.507-2.513-7.424-7.824-7.424h-3.728v16.169z"/><rect id="rect247" height="20.218" width="2.802" y="5.201" x="55.861"/><path id="path249" d="m71.342 5.201l7.535 20.218h-3.235l-2.08-5.951h-7.707l-2.166 5.951h-2.717l8.232-20.218h2.138m1.556 12.246c-1.009-2.797-1.991-5.601-3.002-9.241h-0.058c-1.04 3.64-2.107 6.444-3.206 9.241h6.266z"/><path id="path251" d="m98.888 25.419h-2.192c-4.392-5.259-11.929-14.326-13.14-16.087h-0.059v16.087h-2.31v-20.218h2.078c4.446 5.257 11.897 14.092 13.255 16.114h0.057v-16.114h2.311v20.218"/><path id="path253" d="m111.56 5.201l7.535 20.218h-3.232l-2.082-5.951h-7.708l-2.166 5.951h-2.714l8.226-20.218h2.13m1.56 12.246c-1.011-2.797-1.991-5.601-3.003-9.241h-0.057c-1.042 3.64-2.109 6.444-3.206 9.241h6.27z"/><path id="path255" d="m124.21 25.419h-2.805v-20.218h5.084c4.275 0 6.902 1.908 6.902 5.834 0 3.407-2.918 6.502-7.452 6.502h-0.895v-1.853l0.926-0.032c2.71-0.14 4.417-1.584 4.417-4.586 0-2.226-1.243-3.842-4.246-3.842h-1.933v18.195"/><path id="path257" d="m135.88 14.962c0-5.656 4.269-10.105 10.104-10.105 5.833 0 10.108 4.449 10.108 10.105 0 6.041-3.871 10.802-10.108 10.802-6.24 0-10.1-4.761-10.1-10.802m17.12 0c0-3.778-2.027-8.083-7.02-8.083-4.997 0-7.017 4.306-7.017 8.083 0 3.958 1.79 8.78 7.017 8.78 5.23 0 7.02-4.822 7.02-8.78z"/><polyline id="polyline259" points="159.9 5.201 162.7 5.201 162.7 23.395 171.11 23.395 171.11 25.419 159.9 25.419 159.9 5.201"/><rect id="rect261" height="20.218" width="2.803" y="5.201" x="173.79"/><path id="path263" d="m190.92 8.322c-0.985-0.72-2.283-1.444-3.495-1.444-2.023 0-3.146 1.179-3.146 2.745 0 1.444 1.24 2.512 3.84 4.39 2.773 2.016 4.388 3.868 4.388 6.464 0 3.206-3.031 5.286-6.266 5.286-1.937 0-4.246-0.691-5.691-2.106l1.244-1.674c1.186 0.834 2.485 1.762 4.389 1.762 1.994 0 3.523-1.07 3.523-3.325 0-2.538-3.032-4.184-4.677-5.394-1.674-1.304-3.552-2.546-3.552-5.402 0-2.719 2.625-4.767 5.774-4.767 2.108 0 3.873 0.75 4.997 2.021l-1.31 1.444"/></g><g id="g265" fill="#231F20"><rect id="rect267" height="20.306" width="2.815" y="5.111" x="206.36"/><path id="path269" d="m231.83 25.417h-2.205c-4.41-5.28-11.979-14.39-13.202-16.158h-0.057v16.158h-2.322v-20.306h2.091c4.468 5.277 11.948 14.154 13.316 16.187h0.061v-16.187h2.317v20.306"/><polyline id="polyline271" points="240.91 25.417 240.91 7.141 234.41 7.141 234.41 5.111 250.25 5.111 250.25 7.141 243.72 7.141 243.72 25.417 240.91 25.417"/><polyline id="polyline273" points="262.84 7.141 255.64 7.141 255.64 13.699 262.7 13.699 262.7 15.726 255.64 15.726 255.64 23.389 264.09 23.389 264.09 25.417 252.83 25.417 252.83 5.111 262.84 5.111 262.84 7.141"/><path id="path275" d="m267.25 5.111h5.802c3.308 0 5.89 1.709 5.89 5.222 0 2.984-1.45 4.67-3.393 5.918l5.05 8.644-2.848 0.869-4.699-8.76h-2.987v8.413h-2.814v-20.306m2.81 9.866h1.595c3.6 0 4.265-2.672 4.265-4.385 0-2.494-1.566-3.451-3.451-3.451h-2.408v7.836z"/><path id="path277" d="m301.17 25.417h-2.207c-4.408-5.28-11.98-14.39-13.199-16.158h-0.059v16.158h-2.322v-20.306h2.09c4.467 5.277 11.957 14.154 13.318 16.187h0.057v-16.187h2.322v20.306"/><path id="path279" d="m313.9 5.111l7.57 20.306h-3.248l-2.088-5.977h-7.75l-2.172 5.977h-2.73l8.271-20.306h2.15m1.57 12.301c-1.018-2.815-2-5.63-3.016-9.285h-0.061c-1.043 3.655-2.117 6.47-3.217 9.285h6.3z"/><polyline id="polyline281" points="326.41 25.417 326.41 7.141 319.91 7.141 319.91 5.111 335.75 5.111 335.75 7.141 329.22 7.141 329.22 25.417 326.41 25.417"/><rect id="rect283" height="20.306" width="2.813" y="5.111" x="338.33"/><path id="path285" d="m344.97 14.918c0-5.686 4.289-10.154 10.154-10.154 5.861 0 10.152 4.469 10.152 10.154 0 6.062-3.889 10.849-10.152 10.849-6.26 0-10.15-4.788-10.15-10.849m17.2 0c0-3.801-2.029-8.124-7.045-8.124-5.021 0-7.049 4.323-7.049 8.124 0 3.97 1.801 8.818 7.049 8.818 5.26 0 7.05-4.848 7.05-8.818z"/><path id="path287" d="m386.89 25.417h-2.207c-4.402-5.28-11.979-14.39-13.195-16.158h-0.064v16.158h-2.318v-20.306h2.092c4.471 5.277 11.955 14.154 13.314 16.187h0.059v-16.187h2.32v20.306"/><path id="path289" d="m399.62 5.111l7.572 20.306h-3.246l-2.088-5.977h-7.748l-2.174 5.977h-2.725l8.264-20.306h2.16m1.57 12.301c-1.016-2.815-2.002-5.63-3.018-9.285h-0.057c-1.045 3.655-2.115 6.47-3.221 9.285h6.3z"/><polyline id="polyline291" points="409.52 5.111 412.33 5.111 412.33 23.386 420.77 23.386 420.77 25.417 409.52 25.417 409.52 5.111"/></g><g id="g293" fill="#231F20"><path id="path295" d="m439.16 5.446l7.287 19.565h-3.127l-2.01-5.758h-7.463l-2.094 5.758h-2.629l7.967-19.565h2.06m1.51 11.849c-0.98-2.71-1.932-5.417-2.908-8.938h-0.053c-1.006 3.521-2.043 6.228-3.104 8.938h6.06z"/><rect id="rect297" height="19.565" width="2.713" y="5.446" x="449.81"/><path id="path299" d="m456.28 5.446h5.59c3.184 0 5.67 1.651 5.67 5.035 0 2.876-1.395 4.499-3.268 5.7l4.859 8.322-2.734 0.843-4.527-8.442h-2.881v8.106h-2.709v-19.564m2.71 9.501h1.537c3.467 0 4.107-2.564 4.107-4.218 0-2.401-1.508-3.322-3.324-3.322h-2.32v7.54z"/><path id="path301" d="m475.46 25.011h-2.709v-19.565h4.912c4.137 0 6.678 1.853 6.678 5.647 0 3.296-2.818 6.283-7.205 6.283h-0.869v-1.782l0.898-0.029c2.625-0.14 4.27-1.543 4.27-4.442 0-2.153-1.201-3.716-4.104-3.716h-1.871v17.604"/><path id="path303" d="m488.62 14.895c0-5.478 4.135-9.781 9.775-9.781 5.645 0 9.781 4.303 9.781 9.781 0 5.84-3.742 10.452-9.781 10.452-6.04 0-9.78-4.612-9.78-10.452m16.56 0c0-3.661-1.955-7.826-6.789-7.826s-6.787 4.166-6.787 7.826c0 3.83 1.727 8.495 6.787 8.495 5.06-0.001 6.79-4.665 6.79-8.495z"/><path id="path305" d="m512.05 5.446h5.586c3.188 0 5.67 1.651 5.67 5.035 0 2.876-1.395 4.499-3.264 5.7l4.859 8.322-2.736 0.843-4.529-8.442h-2.873v8.106h-2.713v-19.564m2.7 9.501h1.533c3.465 0 4.107-2.564 4.107-4.218 0-2.401-1.512-3.322-3.326-3.322h-2.314v7.54z"/><polyline id="polyline307" points="532.57 25.011 532.57 7.407 526.3 7.407 526.3 5.446 541.56 5.446 541.56 7.407 535.28 7.407 535.28 25.011 532.57 25.011"/></g><path id="path309" d="m240.54 58.646l-0.003 0.012c-0.029 0.216 0.021 0.379 0.137 0.483 0.177 0.152 0.401 0.088 0.475 0.064 1.582-0.314 16.098-3.133 32.881-2.955 14.382 0.164 22.351 2.101 24.455 2.695l-0.006-0.009 0.047 0.018c0.248 0.07 0.398-0.009 0.482-0.087 0.053-0.056 0.125-0.161 0.125-0.327l-0.02-0.16v-0.012l-0.002-0.021c-0.807-3.308-4.332-6.631-9.682-9.113-5.598-2.596-12.57-4.025-19.634-4.025-15.49 0-28.06 5.775-29.27 13.437m58.57-0.24l0.002 0.012v-0.012zm-0.55 0.125l0.004 0.023-0.004-0.021v-0.002z" fill="#002D62"/><path id="path311" d="m292.36 60.363c-3.215 0.073-11.508 0.866-14.138 1.252-4.304 0.624-12.489 2.226-14.534 2.718-2.188 0.525-4.509 1.188-6.372 1.722l-2.36 0.659-0.186 0.047c-0.691 0.178-1.754 0.446-2.991 0.565-1.093 0.079-0.105-0.216-0.105-0.216 0.942-0.326 2.624-1.173 2.856-2.751l0.015-0.192c0-0.312-0.105-0.606-0.313-0.878-0.727-0.948-2.737-1.613-6.144-2.03-2.075-0.254-5.446-0.382-7.268-0.432h-0.066c-0.354 0.035-0.432 0.333-0.455 0.615l-0.015 0.336c0 4.037 3.118 7.797 8.774 10.598 5.549 2.739 12.909 4.253 20.73 4.253 7.819 0 15.181-1.514 20.728-4.253 5.656-2.801 8.773-6.561 8.773-10.589 0-0.28-0.018-0.552-0.041-0.8l-0.004-0.032c-0.049-0.317-0.279-0.402-0.463-0.417h-0.027l-0.029-0.003c-1.21-0.066-4.04-0.222-6.38-0.172m-37.82 3.996z" fill="#BF311A"/></g></svg>
